<svg width="1440" height="561" viewBox="0 0 1440 561" fill="none" xmlns="http://www.w3.org/2000/svg">
<g clip-path="url(#clip0_293_59)">
<rect width="1440" height="561" fill="white"/>
<g opacity="0.7">
<path fill-rule="evenodd" clip-rule="evenodd" d="M971.416 758.548C956.917 712.392 979.06 591.171 998.659 539.012C1016.87 490.54 1028.26 469.47 1072.34 430.82C1114.62 393.749 1196.67 364.723 1248.35 340.789C1314.59 310.116 1387.17 227.626 1442.85 250.101C1500.12 273.221 1464.55 358.888 1473.03 416.26C1478.66 454.398 1486.39 489.419 1484.12 529.478C1481.28 579.323 1502.11 635.504 1458.18 677.631C1414.3 719.7 1343.87 696.706 1286.39 719.063C1215.65 746.581 1155.06 828.988 1087.5 821.82C1022.07 814.878 988.191 811.95 971.416 758.548Z" fill="url(#paint0_linear_293_59)" fill-opacity="0.3"/>
<path fill-rule="evenodd" clip-rule="evenodd" d="M1078.04 720.17C1058.26 682.995 1049.42 640.489 1059.5 594.567C1068.88 551.89 1097.94 511.462 1132.06 474.219C1164.79 438.498 1207.19 432.513 1250.31 406.8C1305.55 373.847 1364.47 290.894 1417.93 303.711C1472.93 316.895 1453.31 392.685 1469.29 439.933C1479.92 471.34 1491.97 499.903 1495.74 533.783C1500.44 575.939 1527.38 620.844 1493.89 660.989C1460.46 701.079 1393.62 689.432 1345.06 714.451C1285.29 745.246 1242.64 821.021 1180.69 822.348C1120.7 823.632 1100.92 763.181 1078.04 720.17Z" fill="url(#paint1_linear_293_59)" fill-opacity="0.4"/>
<path opacity="0.5" fill-rule="evenodd" clip-rule="evenodd" d="M1160.62 665.153C1154.82 624.036 1160.02 580.122 1182.48 537.096C1203.36 497.111 1240.46 463.771 1280.94 434.711C1319.77 406.839 1363.12 390.98 1407.86 375.314C1465.19 355.238 1535.55 306.165 1577.58 330.831C1620.82 356.204 1581.19 426.548 1580.7 476.744C1580.37 510.111 1582.13 540.995 1575.18 575.26C1566.53 617.896 1576.15 668.246 1535.34 700.312C1494.59 732.335 1440.73 705.814 1391.52 719.569C1330.96 736.499 1271.57 801.646 1218.01 789.023C1166.13 776.797 1167.33 712.723 1160.62 665.153Z" fill="url(#paint2_linear_293_59)" fill-opacity="0.6"/>
</g>
<g opacity="0.8">
<path fill-rule="evenodd" clip-rule="evenodd" d="M76.2099 82.9583C123.75 91.9327 220.214 168.612 256.972 210.487C291.132 249.401 304.345 269.375 317.648 326.471C330.408 381.235 317.321 467.28 314.062 524.142C309.886 597.013 348.413 699.912 302.342 738.42C254.948 778.033 196.17 706.275 141.579 686.7C105.288 673.688 70.7601 663.994 36.5055 643.1C-6.1164 617.102 -65.481 608.983 -81.9189 550.375C-98.3334 491.849 -44.8495 440.577 -37.4681 379.348C-28.384 303.988 -72.4887 211.698 -34.3163 155.498C2.65297 101.071 21.2073 72.5753 76.2099 82.9583Z" fill="url(#paint3_linear_293_59)" fill-opacity="0.3"/>
<path fill-rule="evenodd" clip-rule="evenodd" d="M59.7866 195.081C101.896 195.165 143.55 207.406 179.293 237.952C212.51 266.339 234.461 311.029 251.219 358.677C267.293 404.378 252.576 444.6 254.927 494.742C257.94 559.001 303.318 650.068 266.81 691.172C229.255 733.456 171.664 680.426 122.463 672.244C89.7578 666.803 58.8834 663.971 27.2274 651.324C-12.1615 635.586 -64.464 638.175 -84.0817 589.72C-103.672 541.332 -61.8907 487.882 -61.0592 433.258C-60.0364 366.027 -106.755 292.692 -78.7204 237.438C-51.5702 183.928 11.0669 194.984 59.7866 195.081Z" fill="url(#paint4_linear_293_59)" fill-opacity="0.4"/>
<path opacity="0.4" fill-rule="evenodd" clip-rule="evenodd" d="M69.3709 293.849C108.365 308.12 144.644 333.402 171.997 373.5C197.416 410.763 209.325 459.201 215.867 508.604C222.14 555.987 215.688 601.694 208.414 648.531C199.09 708.553 209.194 793.74 167.626 819.178C124.865 845.346 81.5112 777.237 37.4765 753.137C8.20465 737.117 -19.8626 724.11 -46.8031 701.825C-80.325 674.095 -129.264 658.843 -138.303 607.735C-147.329 556.697 -98.5468 521.701 -87.4788 471.822C-73.8564 410.432 -103.309 327.342 -66.9226 286.054C-31.6836 246.07 24.2571 277.336 69.3709 293.849Z" fill="url(#paint5_linear_293_59)" fill-opacity="0.6"/>
</g>
</g>
<defs>
<linearGradient id="paint0_linear_293_59" x1="1524.32" y1="575.107" x2="1027.63" y2="562.782" gradientUnits="userSpaceOnUse">
<stop stop-color="#9EE6F7" stop-opacity="0"/>
<stop offset="1" stop-color="#9EE6F7" stop-opacity="0.46"/>
</linearGradient>
<linearGradient id="paint1_linear_293_59" x1="1540.16" y1="578.652" x2="1093.77" y2="643.831" gradientUnits="userSpaceOnUse">
<stop stop-color="#9EE6F7" stop-opacity="0"/>
<stop offset="1" stop-color="#9EE6F7" stop-opacity="0.46"/>
</linearGradient>
<linearGradient id="paint2_linear_293_59" x1="1599.82" y1="629.507" x2="1202.62" y2="561.159" gradientUnits="userSpaceOnUse">
<stop stop-color="#005AE2"/>
<stop offset="1" stop-color="#73E6FF" stop-opacity="0.38"/>
</linearGradient>
<linearGradient id="paint3_linear_293_59" x1="-22.6875" y1="657.041" x2="222.351" y2="224.829" gradientUnits="userSpaceOnUse">
<stop stop-color="#9EE6F7" stop-opacity="0"/>
<stop offset="1" stop-color="#9EE6F7" stop-opacity="0.46"/>
</linearGradient>
<linearGradient id="paint4_linear_293_59" x1="-33.2836" y1="669.342" x2="119.695" y2="244.94" gradientUnits="userSpaceOnUse">
<stop stop-color="#9EE6F7" stop-opacity="0"/>
<stop offset="1" stop-color="#9EE6F7" stop-opacity="0.46"/>
</linearGradient>
<linearGradient id="paint5_linear_293_59" x1="-106.256" y1="697.973" x2="141.281" y2="379.916" gradientUnits="userSpaceOnUse">
<stop stop-color="#005AE2"/>
<stop offset="1" stop-color="#73E6FF" stop-opacity="0.38"/>
</linearGradient>
<clipPath id="clip0_293_59">
<rect width="1440" height="561" fill="white"/>
</clipPath>
</defs>
</svg>
