<svg width="1440" height="299" viewBox="0 0 1440 299" fill="none" xmlns="http://www.w3.org/2000/svg">
<g clip-path="url(#clip0_292_51)">
<rect y="-50" width="1440" height="400" fill="url(#paint0_linear_292_51)"/>
<g opacity="0.7">
<path fill-rule="evenodd" clip-rule="evenodd" d="M927.5 329.646C937.766 282.368 1017.04 188.029 1059.91 152.425C1099.74 119.338 1120.06 106.674 1177.5 94.9311C1232.59 83.6682 1318.25 99.0945 1375 103.901C1447.73 110.061 1551.64 74.351 1588.88 121.455C1627.19 169.91 1553.85 226.711 1532.8 280.749C1518.8 316.671 1508.17 350.923 1486.35 384.595C1459.2 426.493 1449.47 485.615 1390.44 500.45C1331.48 515.264 1281.69 460.403 1220.68 451.356C1145.6 440.223 1052.14 481.797 997.002 442.107C943.602 403.669 915.623 384.345 927.5 329.646Z" fill="url(#paint1_linear_292_51)" fill-opacity="0.3"/>
<path fill-rule="evenodd" clip-rule="evenodd" d="M1039.14 349.118C1040.37 307.027 1053.74 265.722 1085.25 230.824C1114.53 198.392 1159.8 177.667 1207.89 162.214C1254.01 147.391 1293.81 163.198 1344 162.214C1408.32 160.952 1500.59 118.072 1540.68 155.686C1581.93 194.379 1527.35 250.504 1517.83 299.464C1511.5 332.009 1507.83 362.795 1494.32 394.095C1477.52 433.04 1478.68 485.394 1429.71 503.684C1380.8 521.949 1328.51 478.727 1273.93 476.408C1206.75 473.554 1132.17 518.257 1077.7 488.728C1024.95 460.13 1037.71 397.817 1039.14 349.118Z" fill="url(#paint2_linear_292_51)" fill-opacity="0.4"/>
<path fill-rule="evenodd" clip-rule="evenodd" d="M1138.13 342.228C1153.45 303.638 1179.72 268.061 1220.54 241.811C1258.49 217.416 1307.23 206.83 1356.79 201.637C1404.33 196.657 1449.84 204.352 1496.46 212.9C1556.21 223.855 1641.64 216.075 1665.94 258.321C1690.93 301.779 1621.67 343.261 1596.38 386.623C1579.56 415.448 1565.8 443.15 1542.79 469.474C1514.15 502.228 1497.57 550.733 1446.24 558.376C1394.97 566.008 1361.32 516.291 1311.76 503.868C1250.76 488.579 1166.9 515.757 1126.62 478.259C1087.61 441.944 1120.39 386.876 1138.13 342.228Z" fill="url(#paint3_linear_292_51)" fill-opacity="0.6"/>
</g>
<g opacity="0.5">
<path fill-rule="evenodd" clip-rule="evenodd" d="M43 192.107C-13.417 169.4 -91.4973 207.114 -122.5 165.197C-151.311 126.243 -160.612 44.6087 -156.682 0.194534C-152.913 -42.4054 -129.881 -80.169 -105.252 -118.689C-73.6885 -168.055 -65.0909 -244.327 6.63528 -255.235C80.4193 -266.456 128.261 -196.084 189.698 -163.546C230.539 -141.916 270.367 -123.209 305.807 -96.7875C349.903 -63.9121 421.468 -37.7095 420.926 8.84361C420.385 55.3311 334.746 72.5756 303.366 112.714C264.745 162.116 286.756 241.729 218.553 267.706C152.499 292.864 108.273 218.379 43 192.107Z" fill="url(#paint4_linear_292_51)" fill-opacity="0.3"/>
<path fill-rule="evenodd" clip-rule="evenodd" d="M130 156.974C77.1863 142.345 13.321 143.548 -20.5001 109.882C-51.9311 78.5951 -50.7569 74.6472 -54.5753 35.6256C-58.2382 -1.80203 -44.3437 -36.7742 -29.1826 -72.5498C-9.75197 -118.398 -14.6996 -185.578 45.9618 -201.607C108.364 -218.095 161.481 -161.191 220.268 -138.462C259.346 -123.351 297.068 -110.694 332.225 -90.9213C375.971 -66.3189 442.541 -50.026 449.657 -9.45198C456.763 31.0663 385.023 53.8776 364.249 91.6773C338.681 138.201 370.818 205.501 315.679 234.326C262.279 262.243 191.104 173.9 130 156.974Z" fill="url(#paint5_linear_292_51)" fill-opacity="0.4"/>
<path fill-rule="evenodd" clip-rule="evenodd" d="M167.5 93.0639C123.721 69.6206 11.8413 73.3034 -8.00006 35.88C-26.4387 1.10235 85.3641 9.05233 95.0001 -27.6575C104.243 -62.8673 80.953 -62.5497 107 -92.69C140.382 -131.316 181.646 -89.3365 243 -92.69C306.114 -96.1401 300.736 -178.991 356.14 -165.456C417.702 -150.417 330.381 -66.3471 356.14 -41.4862C388.191 -10.5521 531.325 -42.0129 524.207 -3.24956C517.098 35.4605 443.239 42.9825 411.333 73.9319C372.062 112.023 379.01 180.15 318.434 196.348C259.769 212.034 218.149 120.188 167.5 93.0639Z" fill="url(#paint6_linear_292_51)" fill-opacity="0.6"/>
</g>
</g>
<defs>
<linearGradient id="paint0_linear_292_51" x1="720" y1="-50" x2="720" y2="350" gradientUnits="userSpaceOnUse">
<stop offset="0.9999" stop-color="#1E3448"/>
<stop offset="1" stop-color="#1E3448" stop-opacity="0"/>
</linearGradient>
<linearGradient id="paint1_linear_292_51" x1="1498.68" y1="444.146" x2="1073.3" y2="187.424" gradientUnits="userSpaceOnUse">
<stop stop-color="#9EE6F7" stop-opacity="0"/>
<stop offset="1" stop-color="#9EE6F7" stop-opacity="0.46"/>
</linearGradient>
<linearGradient id="paint2_linear_292_51" x1="1510.69" y1="455.074" x2="1090.61" y2="290.591" gradientUnits="userSpaceOnUse">
<stop stop-color="#9EE6F7" stop-opacity="0"/>
<stop offset="1" stop-color="#9EE6F7" stop-opacity="0.46"/>
</linearGradient>
<linearGradient id="paint3_linear_292_51" x1="1537.32" y1="528.799" x2="1226.12" y2="272.689" gradientUnits="userSpaceOnUse">
<stop stop-color="#005AE2"/>
<stop offset="1" stop-color="#73E6FF" stop-opacity="0.38"/>
</linearGradient>
<linearGradient id="paint4_linear_292_51" x1="396.928" y1="-77.6343" x2="140.688" y2="285.345" gradientUnits="userSpaceOnUse">
<stop stop-color="#9EE6F7" stop-opacity="0"/>
<stop offset="1" stop-color="#9EE6F7" stop-opacity="0.46"/>
</linearGradient>
<linearGradient id="paint5_linear_292_51" x1="414.67" y1="-82.5472" x2="238.043" y2="250.013" gradientUnits="userSpaceOnUse">
<stop stop-color="#9EE6F7" stop-opacity="0"/>
<stop offset="1" stop-color="#9EE6F7" stop-opacity="0.46"/>
</linearGradient>
<linearGradient id="paint6_linear_292_51" x1="516.586" y1="-77.2588" x2="255.452" y2="208.884" gradientUnits="userSpaceOnUse">
<stop stop-color="#005AE2"/>
<stop offset="1" stop-color="#73E6FF" stop-opacity="0.38"/>
</linearGradient>
<clipPath id="clip0_292_51">
<rect width="1440" height="299" fill="white"/>
</clipPath>
</defs>
</svg>
