<svg width="114" height="42" viewBox="0 0 114 42" fill="none" xmlns="http://www.w3.org/2000/svg">
<path d="M72.6667 4L82.6667 4C84.8554 4 87.0226 4.4311 89.0447 5.26867C91.0668 6.10625 92.9041 7.33391 94.4518 8.88155C95.9994 10.4292 97.2271 12.2665 98.0647 14.2886C98.9022 16.3107 99.3333 18.478 99.3333 20.6667C99.3333 22.8554 98.9022 25.0226 98.0647 27.0447C97.2271 29.0668 95.9994 30.9041 94.4518 32.4518C92.9041 33.9994 91.0668 35.2271 89.0447 36.0647C87.0226 36.9022 84.8554 37.3333 82.6667 37.3333H72.6667M52.6667 37.3333H42.6667C40.478 37.3333 38.3107 36.9022 36.2886 36.0647C34.2665 35.2271 32.4292 33.9994 30.8816 32.4518C27.7559 29.3262 26 25.0869 26 20.6667C26 16.2464 27.7559 12.0072 30.8816 8.88155C34.0072 5.75595 38.2464 4 42.6667 4L52.6667 4" stroke="#141414" stroke-width="2" stroke-linecap="round" stroke-linejoin="round"/>
<path d="M50 21L76.6667 21" stroke="#141414" stroke-width="2" stroke-linecap="round" stroke-linejoin="round"/>
</svg>
