<svg width="1440" height="523" viewBox="0 0 1440 523" fill="none" xmlns="http://www.w3.org/2000/svg">
<g clip-path="url(#clip0_289_58)">
<rect width="1440" height="523" fill="url(#paint0_linear_289_58)"/>
<g opacity="0.7">
<path fill-rule="evenodd" clip-rule="evenodd" d="M927.5 885.504C937.766 758.506 1017.04 505.09 1059.91 409.451C1099.74 320.572 1120.06 286.553 1177.5 255.009C1232.59 224.755 1318.25 266.193 1375 279.105C1447.73 295.652 1551.64 199.727 1588.88 326.258C1627.19 456.419 1553.85 608.999 1532.8 754.157C1518.8 850.651 1508.17 942.658 1486.35 1033.11C1459.2 1145.66 1449.47 1304.47 1390.44 1344.32C1331.48 1384.11 1281.69 1236.75 1220.68 1212.44C1145.6 1182.54 1052.14 1294.21 997.002 1187.6C943.602 1084.35 915.623 1032.44 927.5 885.504Z" fill="url(#paint1_linear_289_58)" fill-opacity="0.3"/>
<path fill-rule="evenodd" clip-rule="evenodd" d="M1039.14 937.809C1040.37 824.742 1053.74 713.787 1085.25 620.045C1114.53 532.927 1159.8 477.254 1207.89 435.743C1254.01 395.926 1293.81 438.388 1344 435.743C1408.32 432.355 1500.59 317.17 1540.68 418.208C1581.93 522.147 1527.35 672.911 1517.83 804.426C1511.5 891.85 1507.83 974.548 1494.32 1058.63C1477.52 1163.24 1478.68 1303.87 1429.71 1353.01C1380.8 1402.07 1328.51 1285.97 1273.93 1279.74C1206.75 1272.07 1132.17 1392.15 1077.7 1312.83C1024.95 1236.01 1037.71 1068.62 1039.14 937.809Z" fill="url(#paint2_linear_289_58)" fill-opacity="0.4"/>
<path fill-rule="evenodd" clip-rule="evenodd" d="M1138.13 919.302C1153.45 815.64 1179.72 720.071 1220.54 649.557C1258.48 584.029 1307.23 555.593 1356.79 541.644C1404.33 528.265 1449.84 548.936 1496.46 571.897C1556.21 601.325 1641.64 580.426 1665.94 693.909C1690.93 810.646 1621.67 922.076 1596.37 1038.56C1579.56 1115.98 1565.8 1190.4 1542.79 1261.11C1514.15 1349.09 1497.57 1479.39 1446.24 1499.92C1394.97 1520.42 1361.32 1386.87 1311.76 1353.5C1250.76 1312.43 1166.9 1385.44 1126.62 1284.71C1087.61 1187.16 1120.39 1039.23 1138.13 919.302Z" fill="url(#paint3_linear_289_58)" fill-opacity="0.6"/>
</g>
<g opacity="0.5">
<path fill-rule="evenodd" clip-rule="evenodd" d="M42.9995 516.042C-13.4175 455.046 -91.4977 556.354 -122.501 443.756C-151.312 339.118 -160.612 119.83 -156.683 0.523835C-152.913 -113.909 -129.882 -215.35 -105.253 -318.824C-73.689 -451.43 -65.0914 -656.313 6.6348 -685.615C80.4189 -715.758 128.26 -526.723 189.698 -439.318C230.539 -381.215 270.367 -330.964 305.807 -259.991C349.903 -171.68 421.468 -101.295 420.926 23.7571C420.384 148.633 334.746 194.955 303.366 302.775C264.745 435.481 286.756 649.336 218.552 719.117C152.499 786.698 108.273 586.614 42.9995 516.042Z" fill="url(#paint4_linear_289_58)" fill-opacity="0.3"/>
<path fill-rule="evenodd" clip-rule="evenodd" d="M130 421.669C77.1862 382.372 13.3208 385.604 -20.5002 295.168C-51.9312 211.125 -50.757 200.52 -54.5755 95.6999C-58.2384 -4.8387 -44.3439 -98.7814 -29.1828 -194.883C-9.75216 -318.04 -14.6998 -498.502 45.9616 -541.557C108.364 -585.848 161.481 -432.993 220.268 -371.936C259.346 -331.346 297.068 -297.345 332.225 -244.232C375.971 -178.145 442.541 -134.379 449.657 -25.3882C456.763 83.4526 385.023 144.729 364.249 246.267C338.68 371.239 370.818 552.021 315.679 629.453C262.279 704.442 191.104 467.134 130 421.669Z" fill="url(#paint5_linear_289_58)" fill-opacity="0.4"/>
<path fill-rule="evenodd" clip-rule="evenodd" d="M167.499 249.989C123.721 187.016 11.841 196.908 -8.00038 96.3813C-26.4391 2.96097 85.3637 24.3163 94.9998 -74.2941C104.243 -168.875 80.9527 -168.022 107 -248.985C140.381 -352.742 181.646 -239.977 243 -248.985C306.113 -258.253 300.736 -480.81 356.139 -444.452C417.702 -404.052 330.381 -178.223 356.139 -111.441C388.19 -28.3454 531.325 -112.856 524.206 -8.72924C517.097 95.2543 443.239 115.46 411.332 198.597C372.062 300.919 379.01 483.922 318.434 527.433C259.768 569.57 218.149 322.85 167.499 249.989Z" fill="url(#paint6_linear_289_58)" fill-opacity="0.6"/>
</g>
</g>
<defs>
<linearGradient id="paint0_linear_289_58" x1="720" y1="0" x2="720" y2="523" gradientUnits="userSpaceOnUse">
<stop offset="0.9999" stop-color="#1E3448"/>
<stop offset="1" stop-color="#1E3448" stop-opacity="0"/>
</linearGradient>
<linearGradient id="paint1_linear_289_58" x1="1498.68" y1="1193.08" x2="946.248" y2="1068.96" gradientUnits="userSpaceOnUse">
<stop stop-color="#9EE6F7" stop-opacity="0"/>
<stop offset="1" stop-color="#9EE6F7" stop-opacity="0.46"/>
</linearGradient>
<linearGradient id="paint2_linear_289_58" x1="1510.69" y1="1222.43" x2="1036.28" y2="1153.28" gradientUnits="userSpaceOnUse">
<stop stop-color="#9EE6F7" stop-opacity="0"/>
<stop offset="1" stop-color="#9EE6F7" stop-opacity="0.46"/>
</linearGradient>
<linearGradient id="paint3_linear_289_58" x1="1537.32" y1="1420.47" x2="1060.14" y2="1274.28" gradientUnits="userSpaceOnUse">
<stop stop-color="#005AE2"/>
<stop offset="1" stop-color="#73E6FF" stop-opacity="0.38"/>
</linearGradient>
<linearGradient id="paint4_linear_289_58" x1="396.928" y1="-208.541" x2="-205.863" y2="109.336" gradientUnits="userSpaceOnUse">
<stop stop-color="#9EE6F7" stop-opacity="0"/>
<stop offset="1" stop-color="#9EE6F7" stop-opacity="0.46"/>
</linearGradient>
<linearGradient id="paint5_linear_289_58" x1="414.67" y1="-221.738" x2="-123.642" y2="155.579" gradientUnits="userSpaceOnUse">
<stop stop-color="#9EE6F7" stop-opacity="0"/>
<stop offset="1" stop-color="#9EE6F7" stop-opacity="0.46"/>
</linearGradient>
<linearGradient id="paint6_linear_289_58" x1="516.586" y1="-207.534" x2="23.8907" y2="-6.55273" gradientUnits="userSpaceOnUse">
<stop stop-color="#005AE2"/>
<stop offset="1" stop-color="#73E6FF" stop-opacity="0.38"/>
</linearGradient>
<clipPath id="clip0_289_58">
<rect width="1440" height="523" fill="white"/>
</clipPath>
</defs>
</svg>
